<?xml version="1.0" encoding="UTF-8" standalone="no"?>
<svg
   xmlns:dc="http://purl.org/dc/elements/1.1/"
   xmlns:cc="http://creativecommons.org/ns#"
   xmlns:rdf="http://www.w3.org/1999/02/22-rdf-syntax-ns#"
   xmlns:svg="http://www.w3.org/2000/svg"
   xmlns="http://www.w3.org/2000/svg"
   viewBox="0 0 510 49.374802"
   height="49.374802"
   width="510"
   xml:space="preserve"
   id="svg2"
   version="1.1"><metadata
     id="metadata8"><rdf:RDF><cc:Work
         rdf:about=""><dc:format>image/svg+xml</dc:format><dc:type
           rdf:resource="http://purl.org/dc/dcmitype/StillImage" /></cc:Work></rdf:RDF></metadata><defs
     id="defs6"><clipPath
       id="clipPath20"
       clipPathUnits="userSpaceOnUse"><path
         id="path18"
         d="M 0,37.031 H 382.5 V 0 H 0 Z" /></clipPath></defs><g
     transform="matrix(1.3333333,0,0,-1.3333333,0,49.3748)"
     id="g10"><path
       id="path12"
       style="fill:#231f20;fill-opacity:1;fill-rule:nonzero;stroke:none"
       d="m 76.422,6.031 h 0.382 v 24.97 h -0.382 z" /><g
       id="g14"><g
         clip-path="url(#clipPath20)"
         id="g16"><g
           transform="translate(39.5718,28.3307)"
           id="g22"><path
             id="path24"
             style="fill:#f36b25;fill-opacity:1;fill-rule:nonzero;stroke:none"
             d="m 0,0 c 0.43,1.125 1.85,1.125 2.99,1.125 h 0.212 v 1.551 c 0,0 -4.444,-0.098 -5.804,-0.098 -1.399,0 -5.552,0.098 -5.552,0.098 V 1.125 h 0.212 c 1.14,0 2.56,0 2.988,-1.123 0.357,-0.964 0.357,-3.69 0.357,-4.854 v -9.907 c 0,-1.165 0,-3.89 -0.356,-4.853 -0.429,-1.124 -1.849,-1.124 -2.989,-1.124 h -0.212 v -1.552 c 0,0.004 3.592,0.153 5.559,0.153 2.264,0 5.797,-0.153 5.797,-0.153 v 1.552 H 2.99 c -1.14,0 -2.56,0 -2.989,1.122 -0.357,0.965 -0.357,3.69 -0.357,4.855 v 9.907 c 0,1.164 0,3.89 0.356,4.852" /></g><g
           transform="translate(46.144,30.9821)"
           id="g26"><path
             id="path28"
             style="fill:#f36b25;fill-opacity:1;fill-rule:nonzero;stroke:none"
             d="m 0,0 v -6.476 h 1.54 l 0.007,0.205 c 0.14,4.213 1.752,4.391 5.384,4.391 0.125,0 0.25,0 0.373,10e-4 0.903,0.006 1.755,0.012 2.09,-0.321 0.112,-0.112 0.167,-0.266 0.167,-0.47 v -17.021 c 0,-2.526 -0.354,-3.57 -3.911,-3.717 l -0.203,-0.008 v -1.543 c 0,0 4.147,0.152 6.546,0.152 1.831,0 5.921,-0.152 5.921,-0.152 v 1.543 l -0.204,0.008 c -3.557,0.147 -3.91,1.191 -3.91,3.717 V -2.67 c 0,0.176 0.053,0.314 0.163,0.422 0.41,0.403 1.54,0.387 2.448,0.373 0.172,-0.003 0.341,-0.005 0.501,-0.005 3.551,0 4.696,-1.027 4.903,-4.397 l 0.012,-0.199 h 1.529 V 0 c 0,0 -8.962,-0.059 -11.678,-0.059 C 8.962,-0.059 0,0 0,0" /></g><g
           transform="translate(11.1045,19.1579)"
           id="g30"><path
             id="path32"
             style="fill:#f36b25;fill-opacity:1;fill-rule:nonzero;stroke:none"
             d="m 0,0 c 0,0 -0.001,9.015 -0.002,9.067 -0.006,0.361 -0.016,0.852 0.284,0.992 0.208,0.091 2.214,0.018 2.323,0.018 3.162,0 4.977,-1.85 4.977,-5.075 C 7.582,2.651 6.957,1.303 5.556,0.626 4.25,-0.005 0,0 0,0 m 16.868,-11.564 c -1.791,0.281 -2.329,0.484 -3.505,1.844 l -7.371,8.462 c 3.882,0.506 6.275,3.073 6.275,6.779 0,2.413 -0.933,4.153 -2.768,5.173 -1.397,0.776 -3.337,1.153 -5.936,1.153 -0.777,-0.019 -2.648,-0.083 -4.709,-0.083 -2.137,0 -6.577,0.086 -6.577,0.086 v -1.551 h 0.308 c 1.177,0.008 2.501,0.002 2.853,-1.115 C -4.24,8.217 -4.24,5.49 -4.24,4.594 V -5.585 c 0,-1.124 0,-2.83 -0.149,-3.997 -0.044,-0.345 -0.101,-0.646 -0.174,-0.866 -0.36,-1.115 -1.795,-1.115 -2.949,-1.115 h -0.211 v -1.55 c 0,0 3.456,0.152 5.766,0.152 1.986,0 5.44,-0.148 5.44,-0.152 v 1.55 H 3.176 c -1.157,-0.004 -2.47,-10e-4 -2.853,1.117 -0.074,0.22 -0.13,0.521 -0.174,0.864 C 0,-8.425 0,-6.764 0,-5.856 v 4.161 C 1.379,-1.707 1.499,-1.853 2.208,-2.709 2.34,-2.867 2.49,-3.047 2.663,-3.247 l 6.152,-7.634 1.809,-2.232 c 0,0 1.983,0.084 2.947,0.084 1.401,0 3.476,-0.087 3.476,-0.087 v 1.524 z" /></g><g
           transform="translate(86.7007,19.3961)"
           id="g34"><path
             id="path36"
             style="fill:#231f20;fill-opacity:1;fill-rule:nonzero;stroke:none"
             d="m 0,0 h 3 c 1.521,0 2.321,0.699 2.321,1.96 0,1.301 -0.84,1.939 -2.28,1.939 H 0 Z M 2.36,-2.36 H 0 V -7.883 H -3.001 V 6.421 H 3.28 c 1.661,0 2.901,-0.481 3.741,-1.34 0.8,-0.82 1.281,-1.82 1.281,-3.102 0,-2 -1.041,-3.4 -2.841,-4 L 9.042,-7.883 H 5.681 Z" /></g><g
           transform="translate(103.6416,16.6354)"
           id="g38"><path
             id="path40"
             style="fill:#231f20;fill-opacity:1;fill-rule:nonzero;stroke:none"
             d="m 0,0 c 0,2 -0.94,3.359 -2.601,3.359 -1.68,0 -2.6,-1.359 -2.6,-3.359 0,-2 0.92,-3.342 2.6,-3.342 C -0.94,-3.342 0,-2 0,0 m -7.962,0 c 0,3.061 2.181,5.421 5.361,5.421 3.181,0 5.362,-2.36 5.362,-5.421 0,-3.062 -2.181,-5.421 -5.362,-5.421 -3.18,0 -5.361,2.359 -5.361,5.421" /></g><g
           transform="translate(107.1597,16.6354)"
           id="g42"><path
             id="path44"
             style="fill:#231f20;fill-opacity:1;fill-rule:nonzero;stroke:none"
             d="m 0,0 c 0,3.061 2,5.421 5.121,5.421 2.661,0 4.301,-1.54 4.661,-3.761 h -2.66 c -0.18,0.901 -0.88,1.579 -1.881,1.579 -1.64,0 -2.48,-1.26 -2.48,-3.239 0,-1.94 0.78,-3.24 2.44,-3.24 1.101,0 1.881,0.58 2.061,1.74 h 2.62 C 9.702,-3.682 8.002,-5.421 5.261,-5.421 2.021,-5.421 0,-3.062 0,0" /></g><g
           transform="translate(120.9404,20.4362)"
           id="g46"><path
             id="path48"
             style="fill:#231f20;fill-opacity:1;fill-rule:nonzero;stroke:none"
             d="m 0,0 h 0.06 c 0.74,1.08 1.581,1.62 2.981,1.62 2.12,0 3.541,-1.599 3.541,-3.842 v -6.7 H 3.861 v 6.302 c 0,1.099 -0.64,1.88 -1.78,1.88 C 0.88,-0.74 0,-1.7 0,-3.102 v -5.82 H -2.72 V 5.381 H 0 Z" /></g><g
           transform="translate(131.4199,17.7555)"
           id="g50"><path
             id="path52"
             style="fill:#231f20;fill-opacity:1;fill-rule:nonzero;stroke:none"
             d="M 0,0 H 4.561 C 4.481,1.301 3.621,2.199 2.38,2.199 0.94,2.199 0.24,1.341 0,0 m -2.721,-1.102 c 0,3.041 2.061,5.403 5.062,5.403 3.3,0 5.061,-2.522 5.061,-6.181 H -0.04 c 0.2,-1.581 1.081,-2.56 2.621,-2.56 1.06,0 1.68,0.479 1.98,1.258 H 7.242 C 6.861,-5.001 5.241,-6.541 2.601,-6.541 c -3.401,0 -5.322,2.38 -5.322,5.439" /></g><g
           transform="translate(139.4395,14.8346)"
           id="g54"><path
             id="path56"
             style="fill:#231f20;fill-opacity:1;fill-rule:nonzero;stroke:none"
             d="m 0,0 h 2.521 c 0.179,-1.181 1.02,-1.7 2.24,-1.7 1.2,0 1.88,0.46 1.88,1.179 0,0.982 -1.3,1.082 -2.701,1.362 C 2.1,1.199 0.3,1.7 0.3,3.94 c 0,2.222 1.84,3.282 4.181,3.282 2.7,0 4.201,-1.34 4.401,-3.402 H 6.421 C 6.301,4.922 5.601,5.32 4.441,5.32 3.38,5.32 2.68,4.922 2.68,4.182 2.68,3.301 4.041,3.221 5.501,2.921 7.221,2.561 9.122,2.081 9.122,-0.319 9.122,-2.38 7.361,-3.62 4.801,-3.62 1.82,-3.62 0.16,-2.181 0,0" /></g><g
           transform="translate(148.9795,21.776)"
           id="g58"><path
             id="path60"
             style="fill:#231f20;fill-opacity:1;fill-rule:nonzero;stroke:none"
             d="M 0,0 H 1.42 V 3.2 H 4.081 V 0 h 1.76 v -1.801 h -1.76 v -5.44 c 0,-0.76 0.42,-1.022 1.02,-1.022 0.34,0 0.8,0.022 0.8,0.022 v -2.001 c 0,0 -0.62,-0.039 -1.7,-0.039 -1.321,0 -2.781,0.518 -2.781,2.46 v 6.02 H 0 Z" /></g><g
           transform="translate(158.3398,17.7555)"
           id="g62"><path
             id="path64"
             style="fill:#231f20;fill-opacity:1;fill-rule:nonzero;stroke:none"
             d="M 0,0 H 4.561 C 4.481,1.301 3.621,2.199 2.38,2.199 0.94,2.199 0.24,1.341 0,0 m -2.721,-1.102 c 0,3.041 2.061,5.403 5.062,5.403 3.3,0 5.061,-2.522 5.061,-6.181 H -0.04 c 0.2,-1.581 1.081,-2.56 2.621,-2.56 1.06,0 1.68,0.479 1.98,1.258 H 7.242 C 6.861,-5.001 5.241,-6.541 2.601,-6.541 c -3.401,0 -5.322,2.38 -5.322,5.439" /></g><g
           transform="translate(169.6201,20.1364)"
           id="g66"><path
             id="path68"
             style="fill:#231f20;fill-opacity:1;fill-rule:nonzero;stroke:none"
             d="m 0,0 h 0.06 c 0.62,1.16 1.32,1.76 2.52,1.76 0.3,0 0.481,-0.021 0.641,-0.08 V -0.7 H 3.161 C 1.38,-0.521 0.1,-1.461 0.1,-3.621 V -8.622 H -2.621 V 1.64 H 0 Z" /></g><path
           id="path70"
           style="fill:#231f20;fill-opacity:1;fill-rule:nonzero;stroke:none"
           d="m 177.619,25.817 h 2.899 V 11.514 h -2.899 z" /><g
           transform="translate(185.1797,20.3766)"
           id="g72"><path
             id="path74"
             style="fill:#231f20;fill-opacity:1;fill-rule:nonzero;stroke:none"
             d="m 0,0 h 0.06 c 0.7,1.1 1.64,1.68 3.041,1.68 2.12,0 3.541,-1.6 3.541,-3.841 V -8.862 H 3.921 v 6.3 c 0,1.101 -0.641,1.88 -1.78,1.88 -1.202,0 -2.081,-0.96 -2.081,-2.359 V -8.862 H -2.66 V 1.398 H 0 Z" /></g><g
           transform="translate(192.8584,14.8346)"
           id="g76"><path
             id="path78"
             style="fill:#231f20;fill-opacity:1;fill-rule:nonzero;stroke:none"
             d="m 0,0 h 2.521 c 0.179,-1.181 1.02,-1.7 2.24,-1.7 1.2,0 1.881,0.46 1.881,1.179 0,0.982 -1.301,1.082 -2.702,1.362 C 2.101,1.199 0.3,1.7 0.3,3.94 c 0,2.222 1.841,3.282 4.18,3.282 2.702,0 4.202,-1.34 4.402,-3.402 H 6.421 C 6.301,4.922 5.601,5.32 4.44,5.32 3.381,5.32 2.681,4.922 2.681,4.182 2.681,3.301 4.041,3.221 5.501,2.921 7.222,2.561 9.122,2.081 9.122,-0.319 9.122,-2.38 7.361,-3.62 4.801,-3.62 1.82,-3.62 0.16,-2.181 0,0" /></g><g
           transform="translate(202.3984,21.776)"
           id="g80"><path
             id="path82"
             style="fill:#231f20;fill-opacity:1;fill-rule:nonzero;stroke:none"
             d="M 0,0 H 1.42 V 3.2 H 4.081 V 0 h 1.76 v -1.801 h -1.76 v -5.44 c 0,-0.76 0.42,-1.022 1.02,-1.022 0.34,0 0.8,0.022 0.8,0.022 v -2.001 c 0,0 -0.62,-0.039 -1.7,-0.039 -1.32,0 -2.781,0.518 -2.781,2.46 v 6.02 H 0 Z" /></g><path
           id="path84"
           style="fill:#231f20;fill-opacity:1;fill-rule:nonzero;stroke:none"
           d="m 209.638,21.776 h 2.723 V 11.514 h -2.723 z m 0,4.041 h 2.723 v -2.44 h -2.723 z" /><g
           transform="translate(213.5186,21.776)"
           id="g86"><path
             id="path88"
             style="fill:#231f20;fill-opacity:1;fill-rule:nonzero;stroke:none"
             d="M 0,0 H 1.42 V 3.2 H 4.081 V 0 h 1.76 v -1.801 h -1.76 v -5.44 c 0,-0.76 0.42,-1.022 1.02,-1.022 0.34,0 0.8,0.022 0.8,0.022 v -2.001 c 0,0 -0.62,-0.039 -1.701,-0.039 -1.319,0 -2.78,0.518 -2.78,2.46 v 6.02 H 0 Z" /></g><g
           transform="translate(227.2393,11.5143)"
           id="g90"><path
             id="path92"
             style="fill:#231f20;fill-opacity:1;fill-rule:nonzero;stroke:none"
             d="M 0,0 V 1.199 H -0.06 C -0.76,0.26 -1.561,-0.28 -3,-0.28 c -2.281,0 -3.562,1.461 -3.562,3.701 v 6.841 H -3.86 V 3.881 c 0,-1.2 0.54,-1.86 1.7,-1.86 1.28,0 2.06,0.958 2.06,2.32 v 5.921 H 2.621 V 0 Z" /></g><g
           transform="translate(231.0176,21.776)"
           id="g94"><path
             id="path96"
             style="fill:#231f20;fill-opacity:1;fill-rule:nonzero;stroke:none"
             d="M 0,0 H 1.42 V 3.2 H 4.081 V 0 h 1.76 v -1.801 h -1.76 v -5.44 c 0,-0.76 0.42,-1.022 1.02,-1.022 0.34,0 0.8,0.022 0.8,0.022 v -2.001 c 0,0 -0.62,-0.039 -1.7,-0.039 -1.32,0 -2.781,0.518 -2.781,2.46 v 6.02 H 0 Z" /></g><g
           transform="translate(240.3779,17.7555)"
           id="g98"><path
             id="path100"
             style="fill:#231f20;fill-opacity:1;fill-rule:nonzero;stroke:none"
             d="M 0,0 H 4.562 C 4.481,1.301 3.621,2.199 2.381,2.199 0.94,2.199 0.24,1.341 0,0 m -2.721,-1.102 c 0,3.041 2.061,5.403 5.062,5.403 3.301,0 5.06,-2.522 5.06,-6.181 H -0.04 c 0.2,-1.581 1.08,-2.56 2.621,-2.56 1.06,0 1.68,0.479 1.981,1.258 h 2.679 c -0.38,-1.819 -2,-3.359 -4.64,-3.359 -3.401,0 -5.322,2.38 -5.322,5.439" /></g><g
           transform="translate(259.8594,16.6354)"
           id="g102"><path
             id="path104"
             style="fill:#231f20;fill-opacity:1;fill-rule:nonzero;stroke:none"
             d="m 0,0 c 0,2 -0.94,3.359 -2.601,3.359 -1.68,0 -2.6,-1.359 -2.6,-3.359 0,-2 0.92,-3.342 2.6,-3.342 C -0.94,-3.342 0,-2 0,0 m -7.962,0 c 0,3.061 2.181,5.421 5.361,5.421 3.181,0 5.362,-2.36 5.362,-5.421 0,-3.062 -2.181,-5.421 -5.362,-5.421 -3.18,0 -5.361,2.359 -5.361,5.421" /></g><g
           transform="translate(263.0771,21.776)"
           id="g106"><path
             id="path108"
             style="fill:#231f20;fill-opacity:1;fill-rule:nonzero;stroke:none"
             d="m 0,0 h 1.4 v 0.921 c 0,2.5 1.941,3.381 4.561,3.1 v -2.1 C 4.681,1.979 4.121,1.82 4.121,0.761 V 0 h 1.84 v -1.88 h -1.84 v -8.383 H 1.4 V -1.88 H 0 Z" /></g><g
           transform="translate(273.1172,25.817)"
           id="g110"><path
             id="path112"
             style="fill:#231f20;fill-opacity:1;fill-rule:nonzero;stroke:none"
             d="M 0,0 H 11.502 V -2.44 H 7.201 v -11.864 h -2.9 V -2.44 H 0 Z" /></g><g
           transform="translate(285.7773,17.7555)"
           id="g114"><path
             id="path116"
             style="fill:#231f20;fill-opacity:1;fill-rule:nonzero;stroke:none"
             d="M 0,0 H 4.562 C 4.479,1.301 3.621,2.199 2.381,2.199 0.939,2.199 0.24,1.341 0,0 m -2.721,-1.102 c 0,3.041 2.061,5.403 5.062,5.403 3.301,0 5.06,-2.522 5.06,-6.181 H -0.04 c 0.2,-1.581 1.08,-2.56 2.621,-2.56 1.06,0 1.68,0.479 1.981,1.258 h 2.679 c -0.38,-1.819 -2,-3.359 -4.64,-3.359 -3.401,0 -5.322,2.38 -5.322,5.439" /></g><g
           transform="translate(293.9365,16.6354)"
           id="g118"><path
             id="path120"
             style="fill:#231f20;fill-opacity:1;fill-rule:nonzero;stroke:none"
             d="m 0,0 c 0,3.061 2.001,5.421 5.121,5.421 2.661,0 4.301,-1.54 4.661,-3.761 H 7.122 C 6.941,2.561 6.241,3.239 5.241,3.239 3.601,3.239 2.761,1.979 2.761,0 c 0,-1.94 0.78,-3.24 2.44,-3.24 1.101,0 1.881,0.58 2.061,1.74 h 2.62 C 9.702,-3.682 8.002,-5.421 5.262,-5.421 2.021,-5.421 0,-3.062 0,0" /></g><g
           transform="translate(307.7178,20.4362)"
           id="g122"><path
             id="path124"
             style="fill:#231f20;fill-opacity:1;fill-rule:nonzero;stroke:none"
             d="m 0,0 h 0.061 c 0.74,1.08 1.58,1.62 2.98,1.62 2.12,0 3.541,-1.599 3.541,-3.842 v -6.7 H 3.861 v 6.302 c 0,1.099 -0.64,1.88 -1.78,1.88 C 0.88,-0.74 0,-1.7 0,-3.102 v -5.82 H -2.721 V 5.381 H 0 Z" /></g><g
           transform="translate(318.6377,20.3766)"
           id="g126"><path
             id="path128"
             style="fill:#231f20;fill-opacity:1;fill-rule:nonzero;stroke:none"
             d="m 0,0 h 0.06 c 0.7,1.1 1.64,1.68 3.041,1.68 2.12,0 3.541,-1.6 3.541,-3.841 V -8.862 H 3.921 v 6.3 c 0,1.101 -0.641,1.88 -1.78,1.88 -1.201,0 -2.081,-0.96 -2.081,-2.359 V -8.862 H -2.661 V 1.398 H 0 Z" /></g><g
           transform="translate(334.4189,16.6354)"
           id="g130"><path
             id="path132"
             style="fill:#231f20;fill-opacity:1;fill-rule:nonzero;stroke:none"
             d="m 0,0 c 0,2 -0.94,3.359 -2.601,3.359 -1.68,0 -2.6,-1.359 -2.6,-3.359 0,-2 0.92,-3.342 2.6,-3.342 C -0.94,-3.342 0,-2 0,0 m -7.962,0 c 0,3.061 2.181,5.421 5.361,5.421 3.181,0 5.362,-2.36 5.362,-5.421 0,-3.062 -2.181,-5.421 -5.362,-5.421 -3.18,0 -5.361,2.359 -5.361,5.421" /></g><path
           id="path134"
           style="fill:#231f20;fill-opacity:1;fill-rule:nonzero;stroke:none"
           d="M 338.477,25.817 H 341.2 V 11.514 h -2.723 z" /><g
           transform="translate(350.458,16.6354)"
           id="g136"><path
             id="path138"
             style="fill:#231f20;fill-opacity:1;fill-rule:nonzero;stroke:none"
             d="m 0,0 c 0,2 -0.94,3.359 -2.601,3.359 -1.68,0 -2.6,-1.359 -2.6,-3.359 0,-2 0.92,-3.342 2.6,-3.342 C -0.94,-3.342 0,-2 0,0 m -7.962,0 c 0,3.061 2.181,5.421 5.361,5.421 3.181,0 5.362,-2.36 5.362,-5.421 0,-3.062 -2.181,-5.421 -5.362,-5.421 -3.18,0 -5.361,2.359 -5.361,5.421" /></g><g
           transform="translate(361.3779,17.0954)"
           id="g140"><path
             id="path142"
             style="fill:#231f20;fill-opacity:1;fill-rule:nonzero;stroke:none"
             d="m 0,0 c 0,1.5 -0.8,2.779 -2.44,2.779 -1.38,0 -2.3,-1.08 -2.3,-2.8 0,-1.74 0.92,-2.759 2.32,-2.759 C -0.7,-2.78 0,-1.521 0,0 m -7.181,-5.882 h 2.701 c 0.219,-0.639 0.799,-1.139 2.06,-1.139 1.54,0 2.28,0.74 2.28,2.139 v 1.12 H -0.199 C -0.8,-4.44 -1.58,-4.961 -2.88,-4.961 c -2.281,0 -4.521,1.801 -4.521,4.9 0,3.062 1.839,5.022 4.441,5.022 1.28,0 2.221,-0.5 2.841,-1.36 h 0.039 v 1.08 h 2.621 v -9.483 c 0,-1.439 -0.46,-2.421 -1.221,-3.121 -0.859,-0.8 -2.179,-1.159 -3.7,-1.159 -2.801,0 -4.521,1.199 -4.801,3.2" /></g><g
           transform="translate(365.8965,10.2936)"
           id="g144"><path
             id="path146"
             style="fill:#231f20;fill-opacity:1;fill-rule:nonzero;stroke:none"
             d="m 0,0 h 0.96 c 1.08,0 1.52,0.561 1.52,1.399 0,0.562 -0.2,1.222 -0.78,2.783 l -2.761,7.299 H 1.8 L 3.32,6.861 C 3.641,5.922 3.98,4.621 3.98,4.621 h 0.041 c 0,0 0.28,1.301 0.6,2.24 l 1.44,4.62 H 8.802 L 5.221,0.961 C 4.44,-1.32 3.681,-2.141 1.6,-2.141 H 0 Z" /></g></g></g></g></svg>